<svg id="jumperr_Image" data-name="jumperr Image" xmlns="http://www.w3.org/2000/svg" viewBox="0 0 905.36 242.7"><defs><style>.cls-1{fill:#19414b;}.cls-2{fill:#99fbfc;}.cls-3{fill:#35535e;}</style></defs><title>jumperrsvgtest</title><path class="cls-1" d="M256.3,69.57c1.89-13.82,12.32-21.38,24.66-21.1,13.37.3,26.9-2.07,40.17,1.31,8.31,2.12,13.45,7.61,16.09,15.5A44.52,44.52,0,0,1,339,82.08c-.22,3.7,1.38,5,5,5,10.8-.06,21.69-.92,32.08,3.26,2.22.89,4.14-.91,6.23-1.32,14.71-2.9,29.46-3.25,44.1,0,6.28,1.37,12.22.51,18.25-.64,3.93-.75,7.85-1.57,11.7-2.64,5.26-1.46,10.41-1.8,15.67,0,4.51,1.58,9,.14,13.26-1.08,11.95-3.43,23.05-.06,34.12,3.71,1.68.58,3,1,4.7.25a71.57,71.57,0,0,1,20.32-5A52.29,52.29,0,0,1,576,90.45c2.65,1.5,4.79,2.11,7.87,1.19,10.06-3,20.41-4.79,30.77-6.42a11.2,11.2,0,0,1,5,0c7.11,2.25,14,.75,21.16-.14,16.41-2,31.79,1.31,44.86,12.07,3.39,2.79,5.33,3,9-.09,15.75-13.28,34-18.38,54.43-14.51,7.71,1.46,15.36,3.22,21.84,8.05,1.66,1.23,3.32.94,5.21.58q18.12-3.51,36.3-6.77a18.75,18.75,0,0,1,10.71,1.76c4.32,1.92,8.35,1.66,12.59.56,2.62-.68,5.38-1.4,7.89-.49,10.46,3.78,20.76,1.62,30.94-.79a31,31,0,0,1,19,1.66c3.68,1.45,6.85-.31,10.25-.62,11.26-1,21.3,1.27,28.14,11.13,4.2,6,4.75,13.21,3.86,20.2-.92,7.16-.61,14.29-.85,21.43-.29,8.9-2.92,16.65-10.79,21.88-2.42,1.61-4.79,2.87-7.79,2.93-4.57.1-6.46,2.14-6.58,7.16-.17,7.62,1.38,15.17.24,22.84-2.06,13.89-12,20.8-23.25,21.5-11.42.72-22.94,1.41-34.35-1a20.66,20.66,0,0,1-10.55-5.31c-2.39-2.32-4.29-2.51-6.76-.07-4.91,4.87-11.38,6.49-17.88,6.59-13.42.21-27,1.6-40-3.52-2-.79-3.86.27-5.78.87-10.19,3.19-20.52,6.27-31.28,5.66C724.35,218,709,214.76,696.57,204c-4.29-3.7-7.15-3.13-10.82.65-7.86,8.13-18.4,10.55-29,12-6.19.84-8.84,3.24-10.28,9.51-2,8.61-8.13,14.33-17.1,16.21a88.76,88.76,0,0,1-40.11-.76c-8.33-2.08-14-8.18-16.24-16.63-2-7.88-1.73-8.09-9.73-7.93-9.88.19-19.67-.06-29-3.86a5.81,5.81,0,0,0-3.86.07c-16.44,4.27-32.91,4-49.36.05a6.23,6.23,0,0,0-3.37-.15c-15.05,4.37-30.24,3.71-45.49,1.22a20.54,20.54,0,0,0-6.95-.07c-14.41,2.66-28.77,2.82-43.1-.45-3.43-.79-6.62.3-9.81,1.13-15.26,3.95-29.35,1.25-42.3-7.47-3.37-2.27-4.78-.42-6.33,2-5.54,8.59-11.72,16.64-20.24,22.51a26.18,26.18,0,0,1-33-2.9c-6.57-6.38-12.56-13.34-19.82-19-2.16-1.69-3.47-2-5.35.29-20.21,24.21-46.07,38.19-77.23,42.6-52.85,7.49-103.41-21.55-124.66-65.29-14.08-29-16.07-59.15-7.6-90.4,5.42-20,16.18-36.31,30.27-50.8,19.21-19.75,43.08-30.92,70-34C157.46,10,178.7,12,199,20.46c22.69,9.46,40.17,25,54.17,44.8C254,66.47,254.89,67.65,256.3,69.57ZM152.24,34.66a98.08,98.08,0,1,0,97.82,98.05A97.72,97.72,0,0,0,152.24,34.66ZM519.6,120.54c-3.64-8.62-10.34-12.65-18.92-14-10.43-1.6-19.26,2.11-27.38,8.31-1.76,1.34-3.46,4.27-5.67,3.22-1.76-.84-.82-4-.86-6.06-.09-4.25-1.74-5.76-5.94-4.26-6.94,2.49-14.24,3.29-21.51,4.15-3.28.39-4.52,2-4,5.41a199.14,199.14,0,0,1,2,29.38c0,13.67,0,27.33-.22,41-.06,3.84,1.08,5.43,5.09,5.32,6.82-.19,13.66-.16,20.48.13,4.52.19,5.59-1.75,5.51-5.95-.26-14-.17-28-.23-42a13,13,0,0,1,12.68-13.15c6.08-.28,9.37,3.73,9.72,11.85,0,1,0,2,.07,3,.54,13.49.26,27-.2,40.47-.14,4,1.12,5.84,5.4,5.57,4.64-.28,9.32,0,14-.08,13.05-.27,12.17,2.7,11.81-12.27-.28-11.82-.37-23.66-.11-35.48.16-7.26,6.61-13.26,13.16-13.06,6.2.19,9.11,4.15,9.4,12.82,0,1.33.08,2.66.07,4-.09,12.82-.1,25.65-.37,38.48-.08,4.17,1.35,6.28,5.64,6.26,7,0,14,0,21,0,3.34,0,4.8-1.67,4.67-5-.74-20-.53-40-.11-60,.22-10.72-5.68-17.8-16-20.93-10-3-19.37-1.51-28.29,3.8C526.46,114,523.19,117.25,519.6,120.54Zm104-4.36c-1.79-8.51-2.28-8.92-10.49-7.61-5.74.92-11.42,2.22-17.17,3.09-3.94.6-4.84,2.57-4,6.25,2.14,9.81,2.63,19.81,2.64,29.81,0,22.15,0,44.3-.19,66.45,0,4.22,1.37,6.28,5.68,6.17,7.15-.19,14.31-.36,21.47-.41,2.68,0,3.22-1.4,3.41-3.76.54-6.84-.19-13.65-.17-20.47,0-7.08-1.7-8.39,6.72-4.74,18.51,8,37.68,2.75,48.43-13.49,8.58-13,9.31-27.25,5.39-41.78-6.82-25.32-36.58-36.28-56-22.67C627.62,114.14,625.8,115,623.6,116.18Zm-202.55,35h.26c0-12-.14-24,.08-36,.07-4-1.31-5.3-5.18-5.19-6.66.2-13.33,0-20,0-7.2,0-7.2,0-7.22,7.46,0,12.66,0,25.33-.12,38-.05,6.42-6.17,12.89-12.49,13.44-7.07.62-11.55-3.9-12.14-12.69a191.61,191.61,0,0,1,1.16-41.39c.54-3.64-.72-4.85-4.22-4.78-5.83.12-11.66,0-17.5,0-8,0-8.26.15-9.66,8a168.71,168.71,0,0,0-.7,52.26c2.56,19.15,19.06,28.41,37.3,21.7,4.73-1.75,8.94-4.44,13.15-7.12,4.82-3.07,5-3.09,5.35,2.52.24,4.09,1.77,6,6.09,5.87,6.82-.25,13.65-.18,20.48-.18,4,0,5.5-1.77,5.43-5.85C420.91,175.15,421.05,163.15,421.05,151.16Zm273.7-.72c0,19.84,9.37,35,26.16,41.56,13.25,5.16,26.74,4.83,40.14.53a30.28,30.28,0,0,0,12.2-7.58c1.58-1.58,2.21-3.15,1.25-5.34a93.12,93.12,0,0,0-7.58-14c-1.25-1.88-2.54-2.23-4.5-.82a34.63,34.63,0,0,1-11.59,5.69c-8.63,2.2-16.87,1.84-24-4.36-1.36-1.18-3-2.88-2.45-4.61s2.92-1.07,4.48-1.22c13.26-1.33,26.53-2.47,39.77-3.89,7.37-.78,9.11-2.91,9.24-10.2.55-28.84-26.93-48.63-54.8-39.48C705.54,112.45,694.79,129,694.75,150.44ZM315.8,116.24c0-11-.12-25.47.08-40,.05-4-1.38-5.36-5.24-5a172,172,0,0,1-24.45.15c-7.93-.5-7.69-.37-6.95,7.43a565.83,565.83,0,0,1,2,81.3c-.54,11.18-4.18,20.84-13.53,27.68-3.24,2.37-2.72,4.28.14,6.59,6.1,4.92,12,10.12,16.72,16.4,2.95,3.93,5.23,3.33,8.36.34,11.77-11.26,18.42-25.13,20.91-41C316.47,153.4,315.17,136.53,315.8,116.24ZM856,161c0,8.49.23,17-.09,25.48-.17,4.65,1.15,6.81,6.1,6.64,6.65-.23,13.33-.22,20,.07,5,.22,6.32-1.92,5.78-6.59-1.33-11.44-.73-23-.78-34.44,0-6.87,2.34-9.33,9.21-9.82a100,100,0,0,1,11.47.29c3,.13,5-.9,4.74-4.2-.61-8.35,0-16.65.81-24.93.32-3.36-1.19-4.45-4.29-4.49-7.12-.1-13.27,2.73-19.22,6.19-5.13,3-5,3-6.05-3-.34-2,.35-5.34-3.41-4.77-8.55,1.32-17,2.89-25.58,4.32-2.24.37-2.59,1.61-2,3.58C856.69,130.35,856.22,145.69,856,161ZM817.41,117.9a56.07,56.07,0,0,1-1-6.16c-.2-3.56-1.27-4.9-5.3-4-7.29,1.64-14.73,2.64-22.14,3.72-3.12.46-4.25,1.36-3.31,4.86A107,107,0,0,1,789,144.52c0,14.16.07,28.32-.16,42.48-.07,4.2,1.14,6.19,5.57,6.09,7-.16,14-.17,21,.08,4.63.16,5.64-1.91,5.23-6.11-1.14-11.62-.76-23.3-.74-34.95,0-7,2.32-9.28,9.26-9.77,3.8-.26,7.64.18,11.47.29,2.63.07,4.8-.62,4.62-3.8a182.69,182.69,0,0,1,.87-25.94c.23-2.57-1-3.63-3.43-3.81A25.84,25.84,0,0,0,830,111.46C825.79,113.37,821.77,115.65,817.41,117.9Z" transform="translate(-30.83 -11.45)"/><path class="cls-2" d="M152.24,34.66a98.08,98.08,0,1,1-98.31,97.53A97.77,97.77,0,0,1,152.24,34.66ZM76.11,163.36a27.62,27.62,0,0,1,2.73-16.58c5.86-11.51,19.23-17.89,31.46-15,13.42,3.12,22.56,14,22.53,27.49,0,4.12,1,5.47,5.2,5.27,7.15-.35,14.33-.32,21.49,0,4.15.18,5.59-.71,5.6-5.34,0-15.42,12.87-27.85,28.17-28a28.67,28.67,0,0,1,29,27.24c.09,1.94-1.54,4.7,1.16,5.79,2.48,1,4.84-.42,6.94-1.91,3-2.08,5.7-4.71,6.17-8.21,2.23-16.83.25-31.69-19.79-35.88a25.25,25.25,0,0,1-15.83-10.31,84.87,84.87,0,0,0-22.36-21.21C160.21,75,140.4,75.45,120.11,79.36c-23.72,4.57-36.83,19.88-42.66,42.33a24.62,24.62,0,0,1-4.6,9.53C65.46,140.63,66.08,153.59,76.11,163.36Zm28.11,20.32c12.79.06,23.8-11,23.81-23.91a23.61,23.61,0,1,0-47.21.16C80.87,172.71,91.63,183.63,104.22,183.68Zm113.09-23.94a23.63,23.63,0,1,0-47.25.22c.09,12.76,10.9,23.69,23.47,23.73C206.36,183.73,217.32,172.68,217.31,159.74Z" transform="translate(-30.83 -11.45)"/><path class="cls-2" d="M519.6,120.54c3.59-3.29,6.86-6.57,10.89-9,8.92-5.31,18.29-6.84,28.29-3.8,10.28,3.13,16.18,10.21,16,20.93-.42,20-.63,40,.11,60,.13,3.33-1.33,5-4.67,5-7,0-14,0-21,0-4.29,0-5.72-2.09-5.64-6.26.27-12.83.28-25.66.37-38.48,0-1.34,0-2.67-.07-4-.29-8.67-3.2-12.63-9.4-12.82-6.55-.2-13,5.8-13.16,13.06-.26,11.82-.17,23.66.11,35.48.36,15,1.24,12-11.81,12.27-4.67.1-9.35-.2-14,.08-4.28.27-5.54-1.55-5.4-5.57.46-13.48.74-27,.2-40.47,0-1,0-2-.07-3-.35-8.12-3.64-12.13-9.72-11.85a13,13,0,0,0-12.68,13.15c.06,14,0,28,.23,42,.08,4.2-1,6.14-5.51,5.95-6.82-.29-13.66-.32-20.48-.13-4,.11-5.15-1.48-5.09-5.32.23-13.66.23-27.32.22-41a199.14,199.14,0,0,0-2-29.38c-.51-3.44.73-5,4-5.41,7.27-.86,14.57-1.66,21.51-4.15,4.2-1.5,5.85,0,5.94,4.26,0,2.09-.9,5.22.86,6.06,2.21,1,3.91-1.88,5.67-3.22,8.12-6.2,16.95-9.91,27.38-8.31C509.26,107.89,516,111.92,519.6,120.54Z" transform="translate(-30.83 -11.45)"/><path class="cls-2" d="M623.6,116.18c2.2-1.22,4-2,5.63-3.16,19.47-13.61,49.23-2.65,56,22.67,3.92,14.53,3.19,28.82-5.39,41.78C669.14,193.71,650,199,631.46,191c-8.42-3.65-6.7-2.34-6.72,4.74,0,6.82.71,13.63.17,20.47-.19,2.36-.73,3.74-3.41,3.76-7.16,0-14.32.22-21.47.41-4.31.11-5.72-2-5.68-6.17.19-22.15.21-44.3.19-66.45,0-10-.5-20-2.64-29.81-.8-3.68.1-5.65,4-6.25,5.75-.87,11.43-2.17,17.17-3.09C621.32,107.26,621.81,107.67,623.6,116.18Zm31.51,34.88a17.68,17.68,0,0,0-1.28-7.43c-2.55-6.84-8.57-11-15.23-10.57-6.31.41-11,4.74-12.92,11.93a23,23,0,0,0,.2,12.76c2.79,9.27,11.45,13.53,20.45,10.08C652.13,165.6,655.11,160.05,655.11,151.06Z" transform="translate(-30.83 -11.45)"/><path class="cls-2" d="M421.05,151.16c0,12-.14,24,.07,36,.07,4.08-1.44,5.86-5.43,5.85-6.83,0-13.66-.07-20.48.18-4.32.16-5.85-1.78-6.09-5.87-.34-5.61-.53-5.59-5.35-2.52-4.21,2.68-8.42,5.37-13.15,7.12-18.24,6.71-34.74-2.55-37.3-21.7a168.71,168.71,0,0,1,.7-52.26c1.4-7.8,1.68-8,9.66-8,5.84,0,11.67.15,17.5,0,3.5-.07,4.76,1.14,4.22,4.78a191.61,191.61,0,0,0-1.16,41.39c.59,8.79,5.07,13.31,12.14,12.69,6.32-.55,12.44-7,12.49-13.44.11-12.66.09-25.33.12-38,0-7.46,0-7.47,7.22-7.46,6.67,0,13.34.21,20,0,3.87-.11,5.25,1.21,5.18,5.19-.22,12-.08,24-.08,36Z" transform="translate(-30.83 -11.45)"/><path class="cls-2" d="M694.75,150.44c0-21.4,10.79-38,28.36-43.76,27.87-9.15,55.35,10.64,54.8,39.48-.13,7.29-1.87,9.42-9.24,10.2-13.24,1.42-26.51,2.56-39.77,3.89-1.56.15-3.93-.45-4.48,1.22s1.09,3.43,2.45,4.61c7.09,6.2,15.33,6.56,24,4.36a34.63,34.63,0,0,0,11.59-5.69c2-1.41,3.25-1.06,4.5.82a93.12,93.12,0,0,1,7.58,14c1,2.19.33,3.76-1.25,5.34a30.28,30.28,0,0,1-12.2,7.58c-13.4,4.3-26.89,4.63-40.14-.53C704.12,185.45,694.72,170.28,694.75,150.44Zm33.91-6.51c2.75-.27,6.4-.59,10-1,1.82-.2,3.62-.67,5.44-.75,3-.12,3.49-1.74,3.06-4.34-1-6-6.53-11.1-12.31-11.19s-10.62,4.26-12.12,11.19C721.61,143.13,722.41,144.1,728.66,143.93Z" transform="translate(-30.83 -11.45)"/><path class="cls-2" d="M315.8,116.24c-.63,20.29.67,37.16-1.93,53.86-2.49,15.89-9.14,29.76-20.91,41-3.13,3-5.41,3.59-8.36-.34-4.72-6.28-10.62-11.48-16.72-16.4-2.86-2.31-3.38-4.22-.14-6.59,9.35-6.84,13-16.5,13.53-27.68a565.83,565.83,0,0,0-2-81.3c-.74-7.8-1-7.93,6.95-7.43a172,172,0,0,0,24.45-.15c3.86-.31,5.29,1,5.24,5C315.68,90.77,315.8,105.25,315.8,116.24Z" transform="translate(-30.83 -11.45)"/><path class="cls-2" d="M856,161c.22-15.32.69-30.66-3.39-45.66-.54-2-.19-3.21,2-3.58,8.53-1.43,17-3,25.58-4.32,3.76-.57,3.07,2.76,3.41,4.77,1,6,.92,6,6.05,3,5.95-3.46,12.1-6.29,19.22-6.19,3.1,0,4.61,1.13,4.29,4.49-.79,8.28-1.42,16.58-.81,24.93.24,3.3-1.76,4.33-4.74,4.2a100,100,0,0,0-11.47-.29c-6.87.49-9.25,3-9.21,9.82,0,11.48-.55,23,.78,34.44.54,4.67-.74,6.81-5.78,6.59-6.64-.29-13.32-.3-20-.07-5,.17-6.27-2-6.1-6.64C856.23,178,856,169.5,856,161Z" transform="translate(-30.83 -11.45)"/><path class="cls-2" d="M817.41,117.9c4.36-2.25,8.38-4.53,12.57-6.44a25.84,25.84,0,0,1,12.64-2.38c2.4.18,3.66,1.24,3.43,3.81a182.69,182.69,0,0,0-.87,25.94c.18,3.18-2,3.87-4.62,3.8-3.83-.11-7.67-.55-11.47-.29-6.94.49-9.25,2.81-9.26,9.77,0,11.65-.4,23.33.74,34.95.41,4.2-.6,6.27-5.23,6.11-7-.25-14-.24-21-.08-4.43.1-5.64-1.89-5.57-6.09.23-14.16.14-28.32.16-42.48a107,107,0,0,0-3.32-28.19c-.94-3.5.19-4.4,3.31-4.86,7.41-1.08,14.85-2.08,22.14-3.72,4-.91,5.1.43,5.3,4A56.07,56.07,0,0,0,817.41,117.9Z" transform="translate(-30.83 -11.45)"/><path class="cls-3" d="M76.11,163.36c-10-9.77-10.65-22.73-3.26-32.14a24.62,24.62,0,0,0,4.6-9.53c5.83-22.45,18.94-37.76,42.66-42.33,20.29-3.91,40.1-4.32,58.46,7.29a84.87,84.87,0,0,1,22.36,21.21,25.25,25.25,0,0,0,15.83,10.31c20,4.19,22,19,19.79,35.88-.47,3.5-3.22,6.13-6.17,8.21-2.1,1.49-4.46,2.91-6.94,1.91-2.7-1.09-1.07-3.85-1.16-5.79a28.67,28.67,0,0,0-29-27.24c-15.3.15-28.12,12.58-28.17,28,0,4.63-1.45,5.52-5.6,5.34-7.16-.3-14.34-.33-21.49,0-4.22.2-5.21-1.15-5.2-5.27,0-13.51-9.11-24.37-22.53-27.49-12.23-2.85-25.6,3.53-31.46,15A27.62,27.62,0,0,0,76.11,163.36Zm87-47c6.16,0,12.31.09,18.46,0,5.74-.11,7.92-3.42,4.88-8.08-8.76-13.43-20.11-22.57-37.41-21-6.41.58-10.09,4.12-10.27,10.56-.12,4.15,0,8.31.23,12.46s2.1,6.36,6.65,6.16C151.43,116.18,157.26,116.36,163.08,116.36Zm-35.82-13.74c0-2.66.08-5.32,0-8-.2-5.58-1.57-6.71-7.07-6-10.87,1.33-20.81,10.24-23.44,21-1.08,4.43.5,6.59,5.18,6.75,3.81.13,7.63.1,11.45,0C127.65,116.06,127.34,119.41,127.26,102.62Z" transform="translate(-30.83 -11.45)"/><path class="cls-3" d="M104.22,183.68c-12.59-.05-23.35-11-23.4-23.75a23.61,23.61,0,1,1,47.21-.16C128,172.68,117,183.74,104.22,183.68Zm.41-12.51a11.57,11.57,0,0,0,11.26-11.62,11.82,11.82,0,0,0-11.74-11.21A11.54,11.54,0,0,0,93,160,11.4,11.4,0,0,0,104.63,171.17Z" transform="translate(-30.83 -11.45)"/><path class="cls-3" d="M217.31,159.74c0,12.94-10.95,24-23.78,23.95-12.57,0-23.38-11-23.47-23.73a23.63,23.63,0,1,1,47.25-.22Zm-23.47,11.43a11.41,11.41,0,0,0,11.27-11.53,11.63,11.63,0,0,0-11.57-11.31,11.48,11.48,0,0,0-11.24,11.61A11.36,11.36,0,0,0,193.84,171.17Z" transform="translate(-30.83 -11.45)"/><path class="cls-1" d="M655.11,151.06c0,9-3,14.54-8.78,16.77-9,3.45-17.66-.81-20.45-10.08a23,23,0,0,1-.2-12.76c1.93-7.19,6.61-11.52,12.92-11.93,6.66-.42,12.68,3.73,15.23,10.57A17.68,17.68,0,0,1,655.11,151.06Z" transform="translate(-30.83 -11.45)"/><path class="cls-1" d="M728.66,143.93c-6.25.17-7-.8-5.9-6.07,1.5-6.93,6.21-11.28,12.12-11.19s11.32,5.2,12.31,11.19c.43,2.6,0,4.22-3.06,4.34-1.82.08-3.62.55-5.44.75C735.06,143.34,731.41,143.66,728.66,143.93Z" transform="translate(-30.83 -11.45)"/><path class="cls-2" d="M163.08,116.36c-5.82,0-11.65-.18-17.46.06-4.55.2-6.44-2.06-6.65-6.16s-.35-8.31-.23-12.46c.18-6.44,3.86-10,10.27-10.56,17.3-1.56,28.65,7.58,37.41,21,3,4.66.86,8-4.88,8.08C175.39,116.45,169.24,116.36,163.08,116.36Z" transform="translate(-30.83 -11.45)"/><path class="cls-2" d="M127.27,102.62c.07,16.79.38,13.44-13.91,13.75-3.82.09-7.64.12-11.45,0-4.68-.16-6.26-2.32-5.18-6.75,2.63-10.76,12.57-19.67,23.44-21,5.5-.67,6.87.46,7.07,6C127.34,97.3,127.26,100,127.27,102.62Z" transform="translate(-30.83 -11.45)"/><path class="cls-2" d="M104.63,171.17A11.4,11.4,0,0,1,93,160a11.54,11.54,0,0,1,11.17-11.69,11.82,11.82,0,0,1,11.74,11.21A11.57,11.57,0,0,1,104.63,171.17Z" transform="translate(-30.83 -11.45)"/><path class="cls-2" d="M193.84,171.17a11.36,11.36,0,0,1-11.54-11.23,11.48,11.48,0,0,1,11.24-11.61,11.63,11.63,0,0,1,11.57,11.31A11.41,11.41,0,0,1,193.84,171.17Z" transform="translate(-30.83 -11.45)"/></svg>